<svg xmlns="http://www.w3.org/2000/svg" viewBox="0 0 1024 1024"><defs><style>.cls-1{fill:#f4ccc7;}.cls-2{fill:#fff;}.cls-3{fill:#4f469c;}.cls-4{fill:#f5933d;}.cls-5{fill:#f9b098;}.cls-6{fill:#ef9f34;}.cls-7{fill:#8a4299;}.cls-8{fill:#a86dae;}.cls-9{fill:#a96eae;}.cls-10{fill:#c84f49;}.cls-11{fill:#f48032;}.cls-12{fill:#ccdef2;}.cls-13{fill:#43ad67;}.cls-14{fill:#56bb6a;}.cls-15{fill:#ebbf38;}.cls-16{fill:#dad5e3;}</style></defs><title>Register Log in Illustration</title><g id="Register_Log_in_Illustration" data-name="Register  Log in Illustration"><path class="cls-1" d="M382.28,234.88a77.9,77.9,0,1,1-77.9,77.9,77.88,77.88,0,0,1,77.9-77.9Zm0-2.36a80.26,80.26,0,1,0,80.25,80.26,80.28,80.28,0,0,0-80.25-80.26Zm394.87-27.25a62.36,62.36,0,0,1,25.5,5.91c33.11,15.38,61.13,61.8,61.13,148.08,0,152.15-125,346.36-346.49,408.28C406.63,798.48,293.4,775,219.5,723.93c-36.95-25.53-64.05-57.95-76.18-93.84S134,554.81,157,515c43.85-75.95,94.73-92.39,154.05-95.27s127,8.1,203.33-12.8c152-41.62,194.28-156.78,194.6-157.64,16.56-28.67,42.39-44.43,68.22-44Zm.09-2.33c-26.76-.39-53.47,15.93-70.38,45.22a.82.82,0,0,0-.09.19S665.35,363.16,513.71,404.68c-75.79,20.75-143.13,9.81-202.83,12.71s-111.8,19.94-156,96.46c-23.27,40.3-26.16,80.5-13.83,117s39.8,69.27,77.08,95c74.55,51.52,188.4,75.07,299.76,43.94C740.44,707.61,866.13,512.7,866.13,359.26c0-86.79-28.2-134.29-62.48-150.22a64.65,64.65,0,0,0-26.41-6.1ZM666.46,187.7a13.8,13.8,0,1,1-13.8,13.8,13.78,13.78,0,0,1,13.8-13.8Zm0-2.37a16.17,16.17,0,1,0,16.16,16.17,16.18,16.18,0,0,0-16.16-16.17Z"/><path class="cls-2" d="M178.14,191h272.1a26.49,26.49,0,0,1,26.55,26.56V661.61a26.49,26.49,0,0,1-26.55,26.55H178.14a26.51,26.51,0,0,1-26.56-26.55V217.52A26.5,26.5,0,0,1,178.14,191Z"/><path class="cls-3" d="M178.14,191a26.5,26.5,0,0,0-26.56,26.56v26.59H476.79V217.52A26.49,26.49,0,0,0,450.24,191Z"/><path class="cls-2" d="M393.3,214.83a6.57,6.57,0,1,1-6.57-6.56,6.57,6.57,0,0,1,6.57,6.56Z"/><path class="cls-2" d="M419.56,214.83a6.57,6.57,0,1,1-6.57-6.56,6.57,6.57,0,0,1,6.57,6.56Z"/><path class="cls-2" d="M447.05,214.83a6.57,6.57,0,1,1-6.57-6.56,6.57,6.57,0,0,1,6.57,6.56Z"/><polygon points="656.09 612.45 676.52 612.45 637.14 838.67 626.85 838.67 656.09 612.45 656.09 612.45"/><polygon points="802.8 612.45 782.37 612.45 821.74 838.67 832.04 838.67 802.8 612.45 802.8 612.45"/><path class="cls-4" d="M638.76,598h176c5.73,0,10.34,4.34,10.34,9.74s-4.61,9.74-10.34,9.74h-176c-5.73,0-10.34-4.34-10.34-9.74S633,598,638.76,598Z"/><path d="M727.13,725.27l87.93,80.24H639.2l87.93-80.24Zm-65.25-62.65h130.5l-65.25,59.55-65.25-59.55Zm-2.94-2.69-.47.46h-.69v.66l-.48.48.48.45v.64h.7l66.95,61.1-92.07,84H817.5l.51.46.48-.46h.68v-.66l.48-.48-.48-.45v-.64h-.71l-89.63-81.79,69.39-63.33H659.44l-.5-.46Z"/><path class="cls-5" d="M549.39,727.49l3.19,77.89h21.35s8.55-57.31,8.57-77.89-28.71-19.1-33.11,0Z"/><path d="M568.33,712.6a19.16,19.16,0,0,0-18.94,14.89s16.4,8.31,32.78,8.43c.21-3.19.33-6.06.33-8.43,0-10-6.72-14.77-14.17-14.89Z"/><path class="cls-6" d="M551.12,766.43l1.46,39h21.35s2.46-18.58,4.75-39Z"/><path class="cls-5" d="M627.7,728.06l16.47,77.32h21.34s-.83-56.74-4.7-77.32-32.33-19.1-33.11,0Z"/><path d="M643.82,713.17c-8-.12-15.72,5-16.13,14.89,0,0,18,8.31,34.37,8.43-.39-3.19-.81-6.06-1.25-8.43-1.88-10-9.52-14.77-17-14.89Z"/><path class="cls-6" d="M635.91,766.43l8.26,39h21.34s.24-18.58-1.33-39Z"/><path d="M665.33,791.34c-2.32,2.19-6.68,4.55-12.4,5.87l-10.09,2.31,1.33,5.86h21.34a122,122,0,0,0-.18-14Z"/><path class="cls-2" d="M671.28,813.77c-2.37-12.86-3.7-15.41-13.12-13.64,0,0,1.82,13,6.39,14.7s6.73-1.06,6.73-1.06Z"/><path class="cls-7" d="M639,800.23c1,9.62-17.43,25.94-19.15,28.16-4.85,6.28-1.14,10.27-1.14,10.27h57.22c2.08-9.92.11-22.15-4.63-24.89-8.57,2.3-13.12-13.64-13.12-13.64H651.9c-1.3-4.87-12.92-7.33-12.92.1Z"/><path d="M675.61,821.5l-9.92,9.93H626.46c-1.31,2.36-2.55,4.75-3.62,7.23h53.07c1.17-5.6,2.22-12.22-.3-17.16Z"/><path d="M618,831.43c-1.86,4.5.67,7.23.67,7.23h31.54s4.28,0,.15-5.42a9.5,9.5,0,0,0-2-1.81Z"/><path class="cls-8" d="M650.49,805.06a4.39,4.39,0,0,1,3.15,1.52c1.92,2.1,2.28,5.89,1.61,8.68a6,6,0,0,1-1.43,2.92.87.87,0,0,1-.57.28,1,1,0,0,1-.69-.33c-3.21-2.75-7.89-9.06-8.92-10.45a11.81,11.81,0,0,1,3.29-1.94,8.41,8.41,0,0,1,3.56-.68Zm.14-2.14a10.45,10.45,0,0,0-4.49.83,19.75,19.75,0,0,0-4.76,2.81,1.07,1.07,0,0,0-.18,1.45s5.88,8.24,10,11.74a3.19,3.19,0,0,0,2.11.85,3,3,0,0,0,2-.81,7.67,7.67,0,0,0,2.1-4c.8-3.34.52-7.72-2.12-10.61a6.74,6.74,0,0,0-4.57-2.22Z"/><path class="cls-8" d="M633.64,805.06a8.41,8.41,0,0,1,3.56.68,11.65,11.65,0,0,1,3.29,1.94c-1,1.4-5.71,7.7-8.92,10.45a1,1,0,0,1-.69.33.87.87,0,0,1-.57-.28,6,6,0,0,1-1.43-2.92c-.67-2.79-.3-6.58,1.62-8.68a4.37,4.37,0,0,1,3.14-1.52Zm-.14-2.14a6.8,6.8,0,0,0-4.58,2.22c-2.64,2.89-2.92,7.28-2.12,10.61a7.67,7.67,0,0,0,2.1,4,3,3,0,0,0,2,.81,3.14,3.14,0,0,0,2.1-.85c4.1-3.5,10-11.74,10-11.74a1.07,1.07,0,0,0-.18-1.45,19.56,19.56,0,0,0-4.75-2.81,10.49,10.49,0,0,0-4.5-.83Z"/><path class="cls-8" d="M638.11,815.6a1.07,1.07,0,0,0,1.57,1.46,2.62,2.62,0,0,1,2-.89,3.07,3.07,0,0,1,2.31,1.23,1.07,1.07,0,1,0,1.6-1.42,5.35,5.35,0,0,0-3.89-2,4.74,4.74,0,0,0-3.53,1.57Z"/><path class="cls-8" d="M634.58,822.36a1.07,1.07,0,0,0,1.56,1.46,2.63,2.63,0,0,1,2-.89,3.07,3.07,0,0,1,2.31,1.23,1.07,1.07,0,0,0,1.6-1.42,5.3,5.3,0,0,0-3.89-1.94,4.71,4.71,0,0,0-3.53,1.56Z"/><path class="cls-7" d="M676.72,532.75S570.4,587,554.28,596.5s-12.55,33.72-12.55,33.72c.61,17.76,4.07,60.09,6,83-6.58,10.38.54,15.28,1.31,15.15h33.12c1.18.32,12.35-1.83,4.71-14.14,4.26-15.05,10.25-42.58,13-84,.46,1.77,13.86,67.54,20.48,85.19-3.85,13.09,3.76,12.51,7.31,12.65l33.38-1.48c3.1,0,6.71-7.61-.43-13.16,1.1-15.73-.88-42.32-7.27-82.84l0-.36s85-17.22,108.4-30.7c13.87-8,14.84-17.2,15.12-28,.41-15.63-8-33.08-17.83-38.79Z"/><path d="M575.34,794.41c-7.45,2.86-19,5.51-22.93,6.36l.18,4.61h21.34s.58-4.39,1.41-11Z"/><path class="cls-2" d="M578.55,814.16a110.46,110.46,0,0,1-14.12-2.55c-6.32-1.69-4.48-11.48-4.48-11.48,21.41-2.48,18.6,3.12,18.6,14Z"/><path class="cls-7" d="M582.39,838.67c4.75-8.22,2.62-15.32-3.84-24.51-12.1-1.1-16.67-3.29-18.6-14h-5.38s-7.17-6.57-10.91,4.85S513,818.41,502.48,824.35c-11.83,6.72-11.82,14.32-2.93,14.32Z"/><path d="M582.76,821.18a41.92,41.92,0,0,0-8.46,6.42c-4.6,4.6-13.23,3.84-13.23,3.84H494.25c-2.47,4.06-.44,7.23,5.3,7.23h82.84c3.48-6,3.26-11.42.37-17.49Z"/><path class="cls-8" d="M548.13,806.58a9.42,9.42,0,0,1,9,7.56,7.31,7.31,0,0,1-1.75,6.06,4.78,4.78,0,0,1-2.23,1.67,3,3,0,0,1-2.07-.14,12.27,12.27,0,0,1-4.55-4.15,40.33,40.33,0,0,1-4.56-8.3,9.55,9.55,0,0,1,6.16-2.71Zm-15.51-4.93a8.07,8.07,0,0,0-2.36.35,6.67,6.67,0,0,0-4.42,4.38c-.66,2.09.22,6.89,1.65,9.89a7.77,7.77,0,0,0,1.94-.88c-1.32-2.77-2-6.9-1.55-8.37a4.81,4.81,0,0,1,3-3c5.27-2.19,8.67,5.27,8.69,5.33a49.46,49.46,0,0,0,5.21,9.48c1.56,2.12,3.35,4,5.51,4.87a5.26,5.26,0,0,0,3.44.2,7,7,0,0,0,3.28-2.35,9.62,9.62,0,0,0,2.21-7.77,11.14,11.14,0,0,0-3.82-6.58,11.3,11.3,0,0,0-7.36-2.7,11.45,11.45,0,0,0-7.09,2.66,9.6,9.6,0,0,0-7.53-5.49,7.5,7.5,0,0,0-.82,0Z"/><path class="cls-8" d="M530.71,810.3a1.07,1.07,0,0,0-1,1.17h0a1.08,1.08,0,0,0,1.17,1,2.63,2.63,0,0,1,2.05.62,3.12,3.12,0,0,1,.92,2.45,1.07,1.07,0,1,0,2.13,0,5.35,5.35,0,0,0-1.62-4,4.79,4.79,0,0,0-3.69-1.17Z"/><path class="cls-8" d="M523.68,814.34a1.07,1.07,0,0,0-1,1.17h0a1.07,1.07,0,0,0,1.16,1,2.59,2.59,0,0,1,2,.62,3.07,3.07,0,0,1,.93,2.45,1.06,1.06,0,0,0,1.06,1.07h0a1.07,1.07,0,0,0,1.07-1.07h0a5.31,5.31,0,0,0-1.63-4,4.75,4.75,0,0,0-3.67-1.17Z"/><path class="cls-9" d="M595,635.13h0a1.15,1.15,0,0,0-.9.45c-2.83,3.61-6.43,8.34-9.54,12.84s-5.73,8.66-6.63,11.59c-1.26,4.12-3.9,17-6.28,29.15s-4.47,23.23-4.47,23.23a1.14,1.14,0,0,0,0,.45l3.16,15.5h2.41l-3.21-15.74c0-.21,2.06-11,4.42-23s5.11-25.26,6.23-28.91c.69-2.24,3.25-6.5,6.31-10.94s6.65-9.14,9.47-12.73a1.17,1.17,0,0,0-.92-1.9Zm60.5-91.55-2.63,1.35c7.47,4,19.35,10.34,23.59,12A138.2,138.2,0,0,0,733,565.72c8.2-.46,15.28-1.18,21.41-2,3,2.95,5.61,5.79,8.58,8.15-4.69,1.51-44.48,21.57-65.58,28.84-12,4.14-24.24,8.49-33.89,12.22-4.83,1.86-9,3.57-12.21,5s-5.34,2.53-6.5,3.68-1.43,3.27-1.25,5.67a47,47,0,0,0,1.72,8.65,220.31,220.31,0,0,0,8.15,22.7c1.83,4.46,3.71,8.81,5.49,12.82q-.4-3.84-.89-8h0c-.81-1.89-1.62-3.82-2.41-5.76a215.87,215.87,0,0,1-8.06-22.43,45.1,45.1,0,0,1-1.64-8.2c-.16-2.13.22-3.47.56-3.82a29.86,29.86,0,0,1,5.81-3.21c3.13-1.42,7.28-3.12,12.08-5,9.6-3.71,21.81-8.05,33.81-12.19,23.55-8.12,66.34-29.09,67.19-29.36.37.24.75.47,1.15.7a25.7,25.7,0,0,0,10.06,3.15c.07-.77.12-1.55.17-2.34a23.25,23.25,0,0,1-9.06-2.87c-3.77-2.15-6.74-5.33-10.36-8.93a138.07,138.07,0,0,0,18.24-4c-.17-.77-.37-1.53-.58-2.29-8.58,2.56-21.94,5.22-42.12,6.35a136,136,0,0,1-55.49-8.69c-3.44-1.31-14.76-7.33-21.79-11.09Z"/><path d="M599.9,630.22s-2.31-11.87-2.1-17.14a11.49,11.49,0,0,1,4.22-8.23s-14.56,3.37-12.87,20.26,8.24,33,8.24,33l2.51-27.93Z"/><path d="M586.87,714.2h-12.7s-2.11-3,3.38-5.54,13.89-12.94,13.89-12.94l-4.57,18.48Z"/><path d="M660.64,713.42H646.12s-2.32-2.86,4.65-5.81,9.7-16.67,9.7-16.67,2,17.95.17,22.48Z"/><path class="cls-5" d="M421.17,400.52c.07,7.27,13.49,22.05,17.76,24s22.3-2.22,30.31-3.93c0-.68,19.54,3.63,39.37,7.53l-8.73-27.49L465,402.22h0s-9-5.47-13.33-7.88-11.77-8.8-14.59-10.95-4.54,2.28-2,6.33a54.39,54.39,0,0,1,3.77,6.88s-10.2-.09-12.47-.09c-3.78,0-5.25,1.59-5.22,4Z"/><polygon points="499.88 400.65 495.42 425.37 508.61 428.14 499.88 400.65 499.88 400.65"/><path d="M465,402.22l3.2,8s.8.71,1.51-1.31,3.13-7,3.13-7l-7.84.26Z"/><path d="M438.87,396.6s4.81,5.87,9.3,7.08S460,414.17,459,418s-2.85,4.29-3.28,4-4.14-9.92-8.57-13.06A73.68,73.68,0,0,0,435,402.33c-2.21-1,3.83-5.73,3.83-5.73Z"/><path class="cls-6" d="M636.4,393.49c1.32,0,2.55,0,3.66.07,31.84,1.13,37.7,33.58,17.54,45.33-.21.13-.42.24-.63.35h0a18.74,18.74,0,0,1-11.91,1.53s-120-11.4-128.37-12c.15-6.9-2.19-16.25-5.61-23-1.55-3.07-3.18-4.75-4.71-5.6l27-2s89.25-4.74,103-4.67Z"/><path class="cls-2" d="M499.88,400.65l2.67,27s7.07,13.81,11.74,9.16,2-20.8-3.21-31-11.2-5.12-11.2-5.12Z"/><path class="cls-10" d="M660.31,289s2,22.22-5,35.33c-28.68,53.39,24.83,43.19,24.83,43.19s-5.25-75.29-19.78-78.52Z"/><path class="cls-2" d="M670.38,519.7c-.43,0-10.29,15.41-3.3,16.37,39.09,5.42,58.51,6.93,96.69,0,6.52-1.18-8.39-18.7-8.81-18.69l-84.58,2.32Z"/><path class="cls-11" d="M710.05,374.92l63.26,23.21s-24.85,68.1-22.5,99.9c3.27,16,13.35,23.12,7,27.26-36.29,4.52-50.6,7.51-90.85,0-7.94-18.83-4.15-20.54-6-32.88,0,0-22.86-88-24.14-94.28,6.63-4.34,37-22.08,37-22.08l36.22-1.13Z"/><path class="cls-5" d="M710.05,374.92l-36.22,1.13s-11.42,6.68-21.84,12.88c13.7,21.81,26.27,32,32.44,32.89s38.47-14.11,54.71-36.22l-29.09-10.68Z"/><path d="M717.45,488.05s4.76,12.13,16.41,15.41a93.71,93.71,0,0,0,19.4,2.81,49.3,49.3,0,0,1-2.45-8.24c-.08-1.13-.12-2.3-.14-3.52-9.71-.29-23.84-1.62-33.22-6.46Z"/><path class="cls-6" d="M705.81,371.58s1.29,52.24,6,83.93.32,40.82,16,42.24a155.06,155.06,0,0,0,18.36.86c6.46-.23,20.08.85,12.9-16.43,3.07-16.79,8.92-45.37,12.06-53.5,4.3-11.14,7-24,2.14-30.55s-59.11-22.85-67.5-26.55Z"/><path class="cls-5" d="M703.85,329.8l1.14,41c0,30.63-33,30.5-33,5.28l6-28.69,25.83-17.56Z"/><path d="M694.19,336.37l-16.17,11h0L675.38,360c5.17.42,12.49,0,18.2-4.49,9.85-7.7.61-19.12.61-19.12Z"/><path class="cls-5" d="M663.67,294.56,667,335.51s2.94,16.06,14.92,16.06c8.5,0,21.91-15.91,22-24.19s0-21.59,0-34.54-42-18.91-40.32,1.72Z"/><path d="M670.7,313.07s-4.36,5.46-6.31,5.46-.6,5.1,3.28,4.85,6.13-13.4,3-10.31Z"/><path class="cls-10" d="M674.11,288.71s4.85,24.83,16.27,31.83,17.84,1.14,17.84,1.14l-7.71,6.42s-17.41-.71-24.4-22.12-1-27.12-1-27.12l-1,9.85Z"/><path d="M675.12,395.71S677,429,678.31,451.37s.73,37.25.73,37.25-14-70.22-13.14-83.49,5.65-10.14,9.22-9.42Z"/><path class="cls-6" d="M673.83,376.05s-37.82,16.52-39.3,19.14c-1.26,2.22,10.88,60.18,17.13,83.25,1.14,4.2-2.58,6.75-.85,10.41,5,10.5,23.83,7.26,27.21,6s2.69-6.66,1.25-13.72-12.44-81.95-11.37-87.6,5.93-17.53,5.93-17.53Z"/><path class="cls-2" d="M705.81,371.58s-12.19,7.61-23.81,7.69c-11.22.71-6.75-9.27-8.22-11.64,0,0-7.34-3.14-13.5,1s.32,8.57-1.27,11.28-6,12.84,15.4,21.69,42.1,0,47.93-8.56,2.88-17.41.84-21.12-18-3.29-18-3.29l.66,2.95Z"/><path class="cls-12" d="M694.45,377.23s6,11.4,4.36,19-8.89,6.36-15.26,4.85c-3.28-.78-4.39.61-4.71,2.14a47.14,47.14,0,0,0,27.63,0c1.26-5.06-.25-13.33-12-26Z"/><path class="cls-2" d="M690.37,378.34s10.77.29,13.74,18.41-2.14,32.26.31,39.39,2.36,6,2.36,6A35.42,35.42,0,0,0,721.71,444c8-.86,12.29-4.85,12.29-4.85s-5.64-3.86-5.82-14.56,1-28.12-5.16-40.82-17.93-16.55-25.4-14-15.09,9.5-15.09,9.5c3,.08,5.25-.61,7.84-.94Z"/><path class="cls-10" d="M693.54,267.48a47.38,47.38,0,0,0-7.3.39l1,1.5c-5.21-1.24-11.11.14-17.37,6.21,0,0-8.31-9.16-14.77-5.32S660.31,289,660.31,289l3.36,5.54c0-3.12,1-9.8,7.74-5.94,5.33,3.06,11.3,31.49,28.05,27.65a21.26,21.26,0,0,0,2.11-.6c.22,4.53,0,9.15-1.06,12.43-3,9-11.27,27.39-2.42,37.81s33.4,6,38.67-6.14-11.7-29.1-10.7-41.38,6-29.25-6.42-41.53c-7.76-7.67-18.87-9.26-26.1-9.38Z"/><path d="M708.51,295.27s-6.71-21-20.41-23.54c-11.19-2.1-18.27,3.85-18.27,3.85s5.67-9.13,20.51-8.27,30.87,24.56,18.17,28Z"/><path d="M659.07,377.79a2.63,2.63,0,0,1-.06,2.12,10.74,10.74,0,0,0-1.22,3.11,14.78,14.78,0,0,0,2.86,1.68c4.42,1.91,12.33,1.11,4-2.93a18.46,18.46,0,0,1-5.62-4Z"/><path d="M720.77,453.32a1.24,1.24,0,0,1-1.24,1.56,2,2,0,0,1-1.87-1.56,1.23,1.23,0,0,1,1.24-1.55,2,2,0,0,1,1.87,1.55"/><path d="M722,469.06a1.24,1.24,0,0,1-1.24,1.56,2,2,0,0,1-1.87-1.56,1.23,1.23,0,0,1,1.24-1.55,2,2,0,0,1,1.87,1.55"/><path d="M723.67,485.41a1.24,1.24,0,0,1-1.24,1.56,2,2,0,0,1-1.87-1.56,1.23,1.23,0,0,1,1.24-1.55,2,2,0,0,1,1.87,1.55"/><path class="cls-5" d="M735.86,531.85a.85.85,0,0,1,0-.32c.08-.46.42-.79,1.1-.92,3.09-.57,14.81-1.11,19-2.52s16.36-3.75,16.36-3.75h0l22.19-27,21.31,16.68c-15,13.15-28.47,22.49-29.15,23.07-3.63,6.3-12.07,20.41-16,22.11-5.11,2.19-19.42-.26-22.17.25s-13.33-2.94-10.45-7.82c1-1.74,11.27-13.7,11.27-13.7s-3.14-.41-7.33-1.13c-3.07-.52-6-3.31-6.08-5Z"/><path class="cls-6" d="M764.45,395q-.36,0-.72,0c-23.34.62-33.78,31.9-6.4,48.18,15.35,9.14,58.49,28.32,58.49,28.32l-17.19,20.89c1.67-.51,4-.53,7.3.46,7.23,2.18,15.61,6.95,20.49,11.83,6.2-5.6,12.06-11.07,16.62-15.69,4.36-4.41,14.32-14.82,3-27.77-3.17-3.62-10.86-10.42-17.21-16.07l-53.19-45.78A18.7,18.7,0,0,0,764.45,395Z"/><path d="M776.57,519.06l-4.27,5.28,9.7,6.5s1.77,1.24,1.57-1c-.17-1.83-3.78-8.2-7-10.78Z"/><path class="cls-2" d="M794.49,497.38l21.32,16.7s14.87,4.42,14.74-2.17-13.68-15.79-24.62-19.09-11.44,4.56-11.44,4.56Z"/><path d="M815.82,471.47l10.71-5.85s1-.75-1.09-1.68-18.82,3.39-18.82,3.39l9.2,4.14Z"/><polygon points="794.49 497.38 810.3 518.72 815.8 514.07 794.49 497.38 794.49 497.38"/><path d="M742.83,536.94a34.53,34.53,0,0,0,6.44,1c1.34-5.09-2-1.9-6.44-1Z"/><path class="cls-5" d="M411.94,372c1.26-.9,12.71,4.15,15.26,7.71l3,4.19c2.55,3.56-10.32,12.78-12.87,9.21l-3-4.18c-2.55-3.57-3.65-16-2.39-16.93Z"/><path class="cls-6" d="M414.48,389.08,453.81,444a7.91,7.91,0,0,0,12.87-9.21l-39.33-54.93-4.73.16-1.39,4.35-5,.16-1.73,4.54Z"/><path class="cls-10" d="M448.22,436.21l5.59,7.8a7.91,7.91,0,0,0,12.87-9.21L461.09,427l-12.87,9.22Z"/><path d="M411.94,372c-.64.46-.67,3.94-.2,7.7l7.56-5.41c-3.41-1.65-6.71-2.75-7.36-2.29Z"/><polygon class="cls-2" points="448.22 436.21 451.09 440.21 463.96 431 461.09 426.99 448.22 436.21 448.22 436.21"/><polygon points="446.89 434.35 448.22 436.21 461.09 426.99 458.22 422.99 446.89 434.35 446.89 434.35"/><path class="cls-13" d="M804.64,788a4.8,4.8,0,0,0-2.19.51c-4.7,2.37-6.19,12.74-4.05,28-4.68-5.06-8.85-7.73-12.08-7.72a4.93,4.93,0,0,0-2.5.65c-4.38,2.55-5.37,12.35-2.68,26.66h56.07C827.3,808.5,813.38,788,804.64,788Z"/><path class="cls-14" d="M860.14,740.62c-9.21.14-22.57,24.31-30.27,54.8-3.79,15-5.69,29.63-5.28,40.67h70.22c3.68-8.35,4.34-14.48,1.88-17.37a5.93,5.93,0,0,0-4.74-1.84c-3.19,0-7.47,1.49-12.54,4.32,12.56-21.29,16.7-38.31,10.18-41.84a5.93,5.93,0,0,0-2.91-.65c-5,0-12.75,4.53-21.67,12.67,5.86-28.09,4.08-49.68-4.16-50.72a5.53,5.53,0,0,0-.71,0Z"/><path d="M865,791.38s-5.66,7.21-8.09,14.81l-2.42,7.59a79.37,79.37,0,0,1,2.84-20.15,29.74,29.74,0,0,1,9.92-15.3s-1.55,10.58-2.25,13Z"/><path class="cls-14" d="M209.15,724.85C219,724.91,233,748.42,244.4,784c6.44-12.45,12.77-18.73,18-17.79,8.34,1.51,12.67,21.4,11.29,51.89,19.54,3.89,30.75,9.8,30.92,16.28a6,6,0,0,1-.22,1.72h-188c2.26-4.3,9.26-8.49,20.24-12.09-11-17.18-14.72-29.66-10.08-34.33,5.45-5.49,21.69.44,43.3,15.82-3.85-14.58-3.38-24.13,1.34-27,5.59-3.35,16.66,3,30.51,17.57-6.39-39.79-3.9-68.73,6.11-71.09a5.79,5.79,0,0,1,1.38-.16Z"/><path d="M199.25,777.69c.59,5.9,1.4,12.07,2.41,18.41,0,0,8.93,13.25,12.81,22.5l3.88,9.25s-2.73-29.48-19.1-50.16Z"/><path d="M136.59,824l7.69,12.09a28.14,28.14,0,0,1-11.65-10.7l4-1.39Z"/><path d="M786.71,214.83h110.1a10.73,10.73,0,0,1,10.75,10.75v91a10.72,10.72,0,0,1-10.75,10.74H786.71A10.72,10.72,0,0,1,776,316.56v-91a10.72,10.72,0,0,1,10.74-10.75Z"/><path class="cls-2" d="M777.15,205.27H887.24A10.74,10.74,0,0,1,898,216v91a10.73,10.73,0,0,1-10.76,10.74H777.15A10.72,10.72,0,0,1,766.41,307V216a10.72,10.72,0,0,1,10.74-10.75Z"/><path class="cls-10" d="M777.15,205.27A10.72,10.72,0,0,0,766.41,216v9.7H898V216a10.74,10.74,0,0,0-10.76-10.75Z"/><path class="cls-11" d="M801.49,205.27a10.51,10.51,0,1,0-10.5,10.5v-10.5Z"/><path d="M872.13,205.27l0,10.5c1.27-5,4.45-8.7,10.5-10.5Z"/><path class="cls-11" d="M882.63,205.27a10.51,10.51,0,1,0-10.5,10.5v-10.5Z"/><path d="M791,205.27l0,10.5c1.27-5,4.44-8.7,10.5-10.5Z"/><path d="M805.73,253a12,12,0,1,1-12-12,11.95,11.95,0,0,1,12,12Z"/><path class="cls-14" d="M803.85,250a11.95,11.95,0,1,1-12-11.95,11.95,11.95,0,0,1,12,11.95Z"/><path d="M843.4,253a12,12,0,1,1-11.95-12,11.94,11.94,0,0,1,11.95,12Z"/><path class="cls-14" d="M841.53,250a12,12,0,1,1-12-11.95,12,12,0,0,1,12,11.95Z"/><path d="M881.8,253a12,12,0,1,1-11.95-12,11.95,11.95,0,0,1,11.95,12Z"/><path class="cls-14" d="M879.93,250A12,12,0,1,1,868,238a12,12,0,0,1,12,11.95Z"/><path d="M805.73,286.77a12,12,0,1,1-12-12,11.95,11.95,0,0,1,12,12Z"/><path class="cls-14" d="M803.85,283.78a12,12,0,1,1-12-12,11.95,11.95,0,0,1,12,12Z"/><path d="M843.4,286.77a12,12,0,1,1-11.95-12,11.94,11.94,0,0,1,11.95,12Z"/><path class="cls-14" d="M841.53,283.78a12,12,0,1,1-12-12,12,12,0,0,1,12,12Z"/><path d="M881.8,286.77a12,12,0,1,1-11.95-12,11.95,11.95,0,0,1,11.95,12Z"/><path class="cls-14" d="M879.93,283.78a12,12,0,1,1-12-12,12,12,0,0,1,12,12Z"/><polygon points="766.41 225.72 898 225.72 898 230.09 766.41 225.72 766.41 225.72"/><path d="M374.6,341.29a60.41,60.41,0,0,1-60.41,60.41h0a60.42,60.42,0,0,1-60.42-60.41h0a60.42,60.42,0,0,1,60.42-60.42h0a60.41,60.41,0,0,1,60.41,60.42Z"/><path class="cls-15" d="M374.6,333.1a60.41,60.41,0,0,1-60.41,60.42h0a60.42,60.42,0,0,1-60.42-60.42h0a60.42,60.42,0,0,1,60.42-60.42h0A60.41,60.41,0,0,1,374.6,333.1Z"/><path class="cls-11" d="M333.12,312.52a18.94,18.94,0,0,1-18.93,18.93h0a18.93,18.93,0,0,1-18.93-18.93h0a18.92,18.92,0,0,1,18.93-18.93h0a18.93,18.93,0,0,1,18.93,18.93Z"/><path class="cls-11" d="M314.19,344.75c-24,0-43.68,13-44.44,29.28a60.41,60.41,0,0,0,88.88,0c-.76-16.32-20.43-29.28-44.44-29.28Z"/><path class="cls-16" d="M221.68,483.6h185a16.12,16.12,0,0,1,0,32.23h-185a16.12,16.12,0,0,1,0-32.23Z"/><path class="cls-16" d="M222.25,537.08h185a16.12,16.12,0,0,1,0,32.23h-185a16.12,16.12,0,0,1,0-32.23Z"/><path d="M243.25,560.4c-.69.51-4.28-1.39-5.13-1.39s-4.41,2-5.1,1.47,0-4.5-.26-5.3-3.23-3.59-3-4.4,4.27-1.38,5-1.89,2.41-4.18,3.26-4.18,2.64,3.64,3.33,4.13,4.72,1,5,1.81-2.65,3.64-2.9,4.45.5,4.8-.18,5.3Z"/><path d="M281.6,560.4c-.69.51-4.28-1.39-5.13-1.39s-4.41,2-5.1,1.47,0-4.5-.26-5.3-3.23-3.59-3-4.4,4.28-1.38,5-1.89,2.41-4.18,3.26-4.18,2.64,3.64,3.33,4.13,4.72,1,5,1.81-2.65,3.64-2.9,4.45.5,4.8-.18,5.3Z"/><path d="M320,560.4c-.69.51-4.28-1.39-5.13-1.39s-4.41,2-5.1,1.47,0-4.5-.26-5.3-3.23-3.59-3-4.4,4.28-1.38,5-1.89,2.41-4.18,3.26-4.18,2.64,3.64,3.33,4.13,4.72,1,5,1.81-2.65,3.64-2.9,4.45.5,4.8-.18,5.3Z"/><path d="M358.3,560.4c-.69.51-4.28-1.39-5.13-1.39s-4.41,2-5.1,1.47,0-4.5-.26-5.3-3.23-3.59-3-4.4,4.28-1.38,5-1.89,2.42-4.18,3.27-4.18,2.63,3.64,3.32,4.13,4.72,1,5,1.81-2.65,3.64-2.9,4.45.5,4.8-.18,5.3Z"/><path d="M396.65,560.4c-.68.51-4.28-1.39-5.12-1.39s-4.42,2-5.11,1.47,0-4.5-.26-5.3-3.23-3.59-3-4.4,4.28-1.38,5-1.89,2.42-4.18,3.27-4.18,2.63,3.64,3.32,4.13,4.72,1,5,1.81-2.64,3.64-2.9,4.45.5,4.8-.18,5.3Z"/><path class="cls-14" d="M261.94,607.61h104.5a16.09,16.09,0,0,1,16.12,16.12v10a16.08,16.08,0,0,1-16.12,16.11H261.94a16.08,16.08,0,0,1-16.12-16.11v-10a16.09,16.09,0,0,1,16.12-16.12Z"/><path d="M268,627.38a1.18,1.18,0,0,0-1.18,1.18,1.16,1.16,0,0,0,1.18,1.18H360.4a1.18,1.18,0,1,0,0-2.36Z"/><path d="M232.53,499.09a1.18,1.18,0,0,0,0,2.36H395.85a1.18,1.18,0,0,0,0-2.36Z"/><path d="M285.7,446.59a1.18,1.18,0,0,1,0-2.36h57a1.18,1.18,0,1,1,0,2.36Z"/><path d="M238.44,425.49a1.18,1.18,0,1,1,0-2.36h151.5a1.18,1.18,0,0,1,0,2.36Z"/></g></svg>